<?xml version="1.0" encoding="utf-8"?>
<!-- Generator: Adobe Illustrator 17.0.0, SVG Export Plug-In . SVG Version: 6.00 Build 0)  -->
<!DOCTYPE svg PUBLIC "-//W3C//DTD SVG 1.1//EN" "http://www.w3.org/Graphics/SVG/1.1/DTD/svg11.dtd">
<svg version="1.1" id="Layer_1" xmlns="http://www.w3.org/2000/svg" xmlns:xlink="http://www.w3.org/1999/xlink" x="0px" y="0px"
	 width="54px" height="194.667px" viewBox="0 0 54 194.667" enable-background="new 0 0 54 194.667" xml:space="preserve">
<path fill="#9D6147" d="M23.817,34.508l4.587-30.543l4.528,30.555C33.544,38.645,23.11,38.831,23.817,34.508z"/>
<path fill="#8AA5A5" d="M17.86,45.09l10.3,140.851L38.87,45.117C40.318,26.101,16.269,25.15,17.86,45.09z"/>
<g>
	<path fill="#C3D6D8" d="M28.156,185.968l0.201-155.465c-5.652-0.154-11.3,4.593-10.507,14.6L28.156,185.968z"/>
</g>
<path fill="#12626E" d="M28.208,149.326c-6.596,4.009-23.712,17.583-24.192,28.896c-0.483,11.387,10.868,18.761,24.145,7.719
	L28.208,149.326z"/>
<path fill="#1C8F9B" d="M28.208,149.326c6.585,4.026,20.221,18.021,20.672,29.336c0.453,11.388-9.123,16.982-20.719,7.28
	L28.208,149.326z"/>
</svg>
