<?xml version="1.0" encoding="utf-8"?>
<!-- Generator: Adobe Illustrator 17.0.0, SVG Export Plug-In . SVG Version: 6.00 Build 0)  -->
<!DOCTYPE svg PUBLIC "-//W3C//DTD SVG 1.1//EN" "http://www.w3.org/Graphics/SVG/1.1/DTD/svg11.dtd">
<svg version="1.1" id="Layer_1" xmlns="http://www.w3.org/2000/svg" xmlns:xlink="http://www.w3.org/1999/xlink" x="0px" y="0px"
	 width="300px" height="300px" viewBox="0 0 300 300" enable-background="new 0 0 300 300" xml:space="preserve">
<g>
	<g>
		<circle fill="#693215" cx="150.821" cy="150.68" r="143.578"/>
	</g>
	<g>
		<g>
			<path fill="#157E7B" d="M150.335,150.729L150.045,29.51c0,0,2.089,0.002,3.537,0.058c0,0,17.636,0.085,33.943,5.771
				L150.335,150.729z"/>
		</g>
		<g>
			<path fill="#157E7B" d="M150.288,150.699l71.018-98.238c0,0,1.688,1.229,2.828,2.126c0,0,14.218,10.436,24.069,24.62
				L150.288,150.699z"/>
		</g>
		<g>
			<path fill="#157E7B" d="M150.288,150.66L265.5,112.968c0,0,0.643,1.987,1.036,3.382c0,0,5.362,16.802,4.989,34.068
				L150.288,150.66z"/>
		</g>
		<g>
			<path fill="#157E7B" d="M150.393,150.653L35.031,113.431c0,0,0.648-1.985,1.149-3.346c0,0,5.537-16.745,15.988-30.493
				L150.393,150.653z"/>
		</g>
		<g>
			<path fill="#157E7B" d="M150.325,150.75L78.954,52.769c0,0,1.694-1.224,2.899-2.029c0,0,14.331-10.28,30.87-15.246
				L150.325,150.75z"/>
		</g>
		<g>
			<path fill="#157E7B" d="M150.384,150.633l0.448,121.219c0,0-2.089,0-3.538-0.054c0,0-17.635-0.063-33.95-5.726L150.384,150.633z"
				/>
		</g>
		<g>
			<path fill="#157E7B" d="M150.431,150.663l-70.89,98.33c0,0-1.69-1.228-2.831-2.123c0,0-14.23-10.419-24.1-24.589L150.431,150.663
				z"/>
		</g>
		<g>
			<path fill="#157E7B" d="M150.431,150.702L35.269,188.544c0,0-0.645-1.987-1.041-3.382c0,0-5.385-16.793-5.033-34.06
				L150.431,150.702z"/>
		</g>
		<g>
			<path fill="#157E7B" d="M150.325,150.709l115.412,37.073c0,0-0.646,1.985-1.146,3.348c0,0-5.514,16.751-15.947,30.513
				L150.325,150.709z"/>
		</g>
		<g>
			<path fill="#157E7B" d="M150.393,150.611l71.498,97.89c0,0-1.69,1.225-2.896,2.033c0,0-14.317,10.298-30.851,15.287
				L150.393,150.611z"/>
		</g>
	</g>
	<g>
		<g>
			<path fill="#8BCEB1" d="M150.313,150.714L187.536,35.35c0,0,1.985,0.648,3.346,1.151c0,0,16.745,5.536,30.493,15.986
				L150.313,150.714z"/>
		</g>
		<g>
			<path fill="#8BCEB1" d="M150.217,150.645l97.982-71.372c0,0,1.224,1.694,2.029,2.9c0,0,10.28,14.33,15.246,30.869
				L150.217,150.645z"/>
		</g>
		<g>
			<path fill="#8BCEB1" d="M150.41,150.633l-121.219,0.29c0,0,0.002-2.089,0.058-3.538c0,0,0.086-17.636,5.771-33.944
				L150.41,150.633z"/>
		</g>
		<g>
			<path fill="#8BCEB1" d="M150.38,150.678L52.141,79.661c0,0,1.23-1.688,2.127-2.828c0,0,10.435-14.217,24.62-24.067
				L150.38,150.678z"/>
		</g>
		<g>
			<path fill="#8BCEB1" d="M150.341,150.678L112.649,35.468c0,0,1.987-0.643,3.383-1.036c0,0,16.801-5.362,34.067-4.989
				L150.341,150.678z"/>
		</g>
		<g>
			<path fill="#8BCEB1" d="M150.405,150.648l-37.072,115.413c0,0-1.987-0.647-3.348-1.146c0,0-16.752-5.516-30.513-15.948
				L150.405,150.648z"/>
		</g>
		<g>
			<path fill="#8BCEB1" d="M150.503,150.717l-97.889,71.499c0,0-1.226-1.692-2.033-2.897c0,0-10.299-14.317-15.286-30.851
				L150.503,150.717z"/>
		</g>
		<g>
			<path fill="#8BCEB1" d="M150.31,150.729l121.219-0.447c0,0,0,2.088-0.055,3.537c0,0-0.062,17.636-5.726,33.951L150.31,150.729z"
				/>
		</g>
		<g>
			<path fill="#8BCEB1" d="M150.339,150.685l98.331,70.888c0,0-1.228,1.69-2.123,2.831c0,0-10.417,14.232-24.589,24.1
				L150.339,150.685z"/>
		</g>
		<g>
			<path fill="#8BCEB1" d="M150.377,150.684l37.843,115.163c0,0-1.987,0.644-3.382,1.041c0,0-16.795,5.383-34.06,5.032
				L150.377,150.684z"/>
		</g>
	</g>
	<g>
		<g>
			<path fill="#DA642E" d="M150.337,150.727L150.06,35.528c0,0,1.986,0.003,3.363,0.057c0,0,16.76,0.08,32.257,5.483
				L150.337,150.727z"/>
		</g>
		<g>
			<path fill="#DA642E" d="M150.294,150.698l67.49-93.359c0,0,1.604,1.169,2.686,2.021c0,0,13.512,9.918,22.874,23.397
				L150.294,150.698z"/>
		</g>
		<g>
			<path fill="#DA642E" d="M150.294,150.661l109.488-35.82c0,0,0.611,1.888,0.984,3.215c0,0,5.097,15.966,4.741,32.375
				L150.294,150.661z"/>
		</g>
		<g>
			<path fill="#DA642E" d="M150.393,150.655L40.759,115.282c0,0,0.616-1.887,1.093-3.18c0,0,5.262-15.913,15.194-28.979
				L150.393,150.655z"/>
		</g>
		<g>
			<path fill="#DA642E" d="M150.327,150.747L82.501,57.632c0,0,1.609-1.164,2.756-1.929c0,0,13.619-9.769,29.337-14.489
				L150.327,150.747z"/>
		</g>
		<g>
			<path fill="#DA642E" d="M150.384,150.636l0.426,115.198c0,0-1.985,0-3.363-0.051c0,0-16.76-0.06-32.263-5.443L150.384,150.636z"
				/>
		</g>
		<g>
			<path fill="#DA642E" d="M150.427,150.663l-67.368,93.447c0,0-1.606-1.167-2.69-2.018c0,0-13.524-9.899-22.903-23.368
				L150.427,150.663z"/>
		</g>
		<g>
			<path fill="#DA642E" d="M150.427,150.701L40.986,186.664c0,0-0.613-1.889-0.99-3.215c0,0-5.117-15.96-4.783-32.368
				L150.427,150.701z"/>
		</g>
		<g>
			<path fill="#DA642E" d="M150.329,150.709l109.679,35.23c0,0-0.614,1.888-1.089,3.182c0,0-5.241,15.92-15.156,28.998
				L150.329,150.709z"/>
		</g>
		<g>
			<path fill="#DA642E" d="M150.393,150.615l67.947,93.028c0,0-1.607,1.166-2.754,1.932c0,0-13.605,9.787-29.317,14.527
				L150.393,150.615z"/>
		</g>
	</g>
	<g>
		<g>
			<path fill="#693215" d="M150.317,150.712l35.373-109.634c0,0,1.887,0.616,3.18,1.093c0,0,15.913,5.262,28.979,15.194
				L150.317,150.712z"/>
		</g>
		<g>
			<path fill="#693215" d="M150.224,150.646l93.115-67.825c0,0,1.163,1.608,1.928,2.755c0,0,9.769,13.619,14.489,29.337
				L150.224,150.646z"/>
		</g>
		<g>
			<path fill="#693215" d="M150.408,150.634L35.209,150.91c0,0,0.002-1.985,0.055-3.362c0,0,0.082-16.76,5.484-32.256
				L150.408,150.634z"/>
		</g>
		<g>
			<path fill="#693215" d="M150.38,150.678L57.021,83.189c0,0,1.168-1.604,2.021-2.688c0,0,9.918-13.511,23.397-22.873
				L150.38,150.678z"/>
		</g>
		<g>
			<path fill="#693215" d="M150.342,150.678L114.523,41.19c0,0,1.888-0.61,3.215-0.984c0,0,15.968-5.096,32.375-4.741
				L150.342,150.678z"/>
		</g>
		<g>
			<path fill="#693215" d="M150.405,150.651L115.173,260.33c0,0-1.888-0.614-3.182-1.088c0,0-15.92-5.241-28.998-15.157
				L150.405,150.651z"/>
		</g>
		<g>
			<path fill="#693215" d="M150.496,150.714l-93.028,67.948c0,0-1.164-1.606-1.932-2.752c0,0-9.786-13.607-14.527-29.319
				L150.496,150.714z"/>
		</g>
		<g>
			<path fill="#693215" d="M150.312,150.727l115.198-0.426c0,0,0.001,1.986-0.051,3.363c0,0-0.06,16.759-5.442,32.264
				L150.312,150.727z"/>
		</g>
		<g>
			<path fill="#693215" d="M150.341,150.685l93.447,67.367c0,0-1.168,1.607-2.019,2.69c0,0-9.899,13.524-23.367,22.903
				L150.341,150.685z"/>
		</g>
		<g>
			<path fill="#693215" d="M150.377,150.684l35.963,109.442c0,0-1.888,0.612-3.214,0.989c0,0-15.96,5.117-32.368,4.783
				L150.377,150.684z"/>
		</g>
	</g>
	<g>
		<g>
			<path fill="#8BCEB1" d="M150.316,150.696l-0.205-85.173c0,0,1.468,0.002,2.486,0.042c0,0,12.392,0.059,23.849,4.055
				L150.316,150.696z"/>
		</g>
		<g>
			<path fill="#8BCEB1" d="M150.283,150.675l49.9-69.026c0,0,1.186,0.864,1.986,1.494c0,0,9.989,7.332,16.913,17.3L150.283,150.675z
				"/>
		</g>
		<g>
			<path fill="#8BCEB1" d="M150.283,150.647l80.952-26.484c0,0,0.452,1.397,0.728,2.377c0,0,3.767,11.805,3.505,23.937
				L150.283,150.647z"/>
		</g>
		<g>
			<path fill="#8BCEB1" d="M150.356,150.642l-81.059-26.153c0,0,0.455-1.395,0.808-2.351c0,0,3.891-11.766,11.234-21.426
				L150.356,150.642z"/>
		</g>
		<g>
			<path fill="#8BCEB1" d="M150.308,150.71l-50.147-68.844c0,0,1.189-0.86,2.037-1.426c0,0,10.069-7.224,21.69-10.713
				L150.308,150.71z"/>
		</g>
		<g>
			<path fill="#8BCEB1" d="M150.35,150.629l0.315,85.173c0,0-1.468,0-2.486-0.039c0,0-12.392-0.043-23.855-4.022L150.35,150.629z"/>
		</g>
		<g>
			<path fill="#8BCEB1" d="M150.382,150.648l-49.809,69.092c0,0-1.188-0.862-1.989-1.492c0,0-10-7.32-16.934-17.276L150.382,150.648
				z"/>
		</g>
		<g>
			<path fill="#8BCEB1" d="M150.382,150.676l-80.917,26.59c0,0-0.453-1.396-0.731-2.377c0,0-3.784-11.8-3.536-23.932
				L150.382,150.676z"/>
		</g>
		<g>
			<path fill="#8BCEB1" d="M150.31,150.681l81.092,26.05c0,0-0.454,1.395-0.806,2.352c0,0-3.875,11.77-11.206,21.44L150.31,150.681z
				"/>
		</g>
		<g>
			<path fill="#8BCEB1" d="M150.356,150.614l50.237,68.781c0,0-1.187,0.861-2.034,1.428c0,0-10.061,7.237-21.678,10.741
				L150.356,150.614z"/>
		</g>
	</g>
	<g>
		<g>
			<path fill="#157E7B" d="M150.301,150.685l26.154-81.059c0,0,1.395,0.456,2.352,0.808c0,0,11.766,3.891,21.425,11.234
				L150.301,150.685z"/>
		</g>
		<g>
			<path fill="#157E7B" d="M150.232,150.637l68.846-50.148c0,0,0.86,1.19,1.425,2.038c0,0,7.223,10.069,10.712,21.69
				L150.232,150.637z"/>
		</g>
		<g>
			<path fill="#157E7B" d="M150.368,150.629l-85.173,0.203c0,0,0.001-1.467,0.041-2.486c0,0,0.06-12.392,4.055-23.849
				L150.368,150.629z"/>
		</g>
		<g>
			<path fill="#157E7B" d="M150.347,150.66L81.32,100.761c0,0,0.864-1.187,1.496-1.987c0,0,7.332-9.99,17.299-16.912L150.347,150.66
				z"/>
		</g>
		<g>
			<path fill="#157E7B" d="M150.32,150.66l-26.484-80.952c0,0,1.396-0.451,2.377-0.728c0,0,11.804-3.767,23.937-3.506L150.32,150.66
				z"/>
		</g>
		<g>
			<path fill="#157E7B" d="M150.364,150.64l-26.047,81.092c0,0-1.396-0.453-2.353-0.804c0,0-11.77-3.876-21.439-11.207
				L150.364,150.64z"/>
		</g>
		<g>
			<path fill="#157E7B" d="M150.433,150.687l-68.781,50.238c0,0-0.861-1.188-1.428-2.035c0,0-7.236-10.06-10.74-21.677
				L150.433,150.687z"/>
		</g>
		<g>
			<path fill="#157E7B" d="M150.298,150.697l85.173-0.315c0,0,0,1.468-0.038,2.487c0,0-0.044,12.391-4.023,23.853L150.298,150.697z"
				/>
		</g>
		<g>
			<path fill="#157E7B" d="M150.318,150.665l69.092,49.809c0,0-0.862,1.188-1.492,1.99c0,0-7.32,10-17.277,16.934L150.318,150.665z"
				/>
		</g>
		<g>
			<path fill="#157E7B" d="M150.346,150.663l26.589,80.918c0,0-1.395,0.453-2.376,0.731c0,0-11.8,3.783-23.932,3.537
				L150.346,150.663z"/>
		</g>
	</g>
	<g>
		<g>
			<path fill="#DA642E" d="M150.184,150.757l-0.193-80.129c0,0,1.381,0.002,2.339,0.038c0,0,11.657,0.057,22.437,3.815
				L150.184,150.757z"/>
		</g>
		<g>
			<path fill="#DA642E" d="M150.153,150.737l46.945-64.939c0,0,1.116,0.813,1.869,1.406c0,0,9.398,6.898,15.911,16.276
				L150.153,150.737z"/>
		</g>
		<g>
			<path fill="#DA642E" d="M150.153,150.712l76.158-24.917c0,0,0.425,1.315,0.686,2.237c0,0,3.545,11.106,3.297,22.519
				L150.153,150.712z"/>
		</g>
		<g>
			<path fill="#DA642E" d="M150.222,150.707l-76.259-24.605c0,0,0.429-1.312,0.761-2.213c0,0,3.66-11.068,10.568-20.156
				L150.222,150.707z"/>
		</g>
		<g>
			<path fill="#DA642E" d="M150.178,150.772l-47.18-64.77c0,0,1.12-0.809,1.917-1.342c0,0,9.473-6.795,20.406-10.078
				L150.178,150.772z"/>
		</g>
		<g>
			<path fill="#DA642E" d="M150.216,150.693l0.296,80.13c0,0-1.381,0-2.338-0.035c0,0-11.659-0.042-22.443-3.786L150.216,150.693z"
				/>
		</g>
		<g>
			<path fill="#DA642E" d="M150.247,150.714l-46.862,64.999c0,0-1.116-0.811-1.871-1.402c0,0-9.407-6.888-15.931-16.255
				L150.247,150.714z"/>
		</g>
		<g>
			<path fill="#DA642E" d="M150.247,150.739L74.12,175.753c0,0-0.427-1.313-0.687-2.235c0,0-3.56-11.102-3.327-22.515
				L150.247,150.739z"/>
		</g>
		<g>
			<path fill="#DA642E" d="M150.178,150.744l76.291,24.505c0,0-0.427,1.313-0.757,2.213c0,0-3.646,11.075-10.542,20.171
				L150.178,150.744z"/>
		</g>
		<g>
			<path fill="#DA642E" d="M150.222,150.68l47.262,64.708c0,0-1.117,0.811-1.913,1.343c0,0-9.465,6.808-20.394,10.105
				L150.222,150.68z"/>
		</g>
	</g>
	<g>
		<g>
			<path fill="#693215" d="M150.169,150.747l24.606-76.259c0,0,1.312,0.429,2.213,0.761c0,0,11.068,3.66,20.156,10.568
				L150.169,150.747z"/>
		</g>
		<g>
			<path fill="#693215" d="M150.105,150.702l64.77-47.18c0,0,0.809,1.12,1.341,1.917c0,0,6.795,9.473,10.078,20.406L150.105,150.702
				z"/>
		</g>
		<g>
			<path fill="#693215" d="M150.232,150.693l-80.129,0.192c0,0,0.001-1.38,0.038-2.338c0,0,0.056-11.659,3.815-22.437
				L150.232,150.693z"/>
		</g>
		<g>
			<path fill="#693215" d="M150.214,150.723l-64.939-46.944c0,0,0.812-1.117,1.406-1.87c0,0,6.897-9.397,16.274-15.91
				L150.214,150.723z"/>
		</g>
		<g>
			<path fill="#693215" d="M150.187,150.723l-24.916-76.158c0,0,1.314-0.424,2.237-0.686c0,0,11.106-3.544,22.519-3.297
				L150.187,150.723z"/>
		</g>
		<g>
			<path fill="#693215" d="M150.23,150.704l-24.506,76.292c0,0-1.313-0.428-2.213-0.757c0,0-11.074-3.646-20.17-10.542
				L150.23,150.704z"/>
		</g>
		<g>
			<path fill="#693215" d="M150.295,150.749l-64.708,47.263c0,0-0.811-1.117-1.344-1.915c0,0-6.808-9.464-10.105-20.392
				L150.295,150.749z"/>
		</g>
		<g>
			<path fill="#693215" d="M150.167,150.757l80.129-0.296c0,0,0,1.382-0.036,2.339c0,0-0.042,11.658-3.786,22.443L150.167,150.757z"
				/>
		</g>
		<g>
			<path fill="#693215" d="M150.186,150.727l65.001,46.86c0,0-0.812,1.117-1.405,1.872c0,0-6.886,9.407-16.253,15.93
				L150.186,150.727z"/>
		</g>
		<g>
			<path fill="#693215" d="M150.212,150.727l25.016,76.126c0,0-1.313,0.425-2.236,0.688c0,0-11.102,3.559-22.515,3.326
				L150.212,150.727z"/>
		</g>
	</g>
	<g>
		<circle fill="#231F20" cx="150.334" cy="150.553" r="13.109"/>
	</g>
	<g>
		<circle fill="#1AA4B6" cx="150.333" cy="150.553" r="11.28"/>
	</g>
</g>
</svg>
